<?xml version="1.0" encoding="UTF-8"?>
<svg class="lucide lucide-heading-4" stroke-linecap="round" stroke-linejoin="round" stroke-width="2" version="1.1" viewBox="0 0 24 24" xml:space="preserve" xmlns="http://www.w3.org/2000/svg"><circle cx="23.239" cy="12.269" r="0"/><g fill="#4684e1"><path d="m20.984 9.3015h2.0469v-2.127c-5.6e-5 -0.56515-0.45833-1.0234-1.0234-1.0234-0.56515 5.59e-5 -1.0234 0.45833-1.0234 1.0234z"/><path d="m20.984 13.851v0.58594h2e-3v1.7383c5.6e-5 0.56515 0.45833 1.0234 1.0234 1.0234 0.56515-5.6e-5 1.0234-0.45833 1.0234-1.0234v-1.7656h-2e-3v-0.55859z"/><path d="m20.984 13.404h2.0469v-3.6563h-2.0469v0.91797h-2.0469v-0.91797h-2.0469v1.9141c1.12e-4 0.56513 0.45835 1.0214 1.0234 1.0215h3.0703z"/><g><path d="m16.891 9.3015h2.0469v-2.127c-5.6e-5 -0.56515-0.45833-1.0234-1.0234-1.0234-0.56515 5.65e-5 -1.0234 0.45833-1.0234 1.0234z"/><path d="m13.954 13.835h-0.04687v1.3164h-2.0469v-1.3164h-2.0469v2.3398c1.11e-4 0.56513 0.45835 1.0233 1.0234 1.0234h4.0938c0.56515-5.6e-5 1.0234-0.45833 1.0234-1.0234v-2.3398z"/><path d="m13.023 9.748v3.6406h2.0469v-3.6406z"/><path d="m8.9297 9.748v3.6406h2.0469v-3.6406z"/><path d="m8.9297 9.3015h2.0469v-1.1035h2.0469v1.1035h2.0469v-2.127c-5.6e-5 -0.56515-0.45833-1.0234-1.0234-1.0234h-4.0938c-0.56513 1.121e-4 -1.0233 0.45835-1.0234 1.0234z"/><path d="m5.0625 9.3015h2.0469v-2.127c-5.61e-5 -0.56515-0.45833-1.0234-1.0234-1.0234-0.56515 5.61e-5 -1.0234 0.45833-1.0234 1.0234z"/></g><path d="m7.1094 13.851h-2.0469v2.3242c5.59e-5 0.56515 0.45833 1.0234 1.0234 1.0234 0.56515-5.6e-5 1.0234-0.45833 1.0234-1.0234z"/><path d="m0.9668 9.748v1.4824h0.0019531v0.43164c1.1202e-4 0.56513 0.45835 1.0214 1.0234 1.0215h3.0703v0.7207h2.0469v-3.6563h-2.0469v0.91797h-2.0469v-0.91797z"/><path d="m1.9922 6.1511c-0.56515 5.61e-5 -1.0234 0.45833-1.0234 1.0234v1.2813h-0.001953v0.8457h2.0488v-2.127c-5.61e-5 -0.56515-0.45833-1.0234-1.0234-1.0234z"/></g></svg>
