<?xml version="1.0" encoding="UTF-8"?>
<svg class="lucide lucide-heading-4" stroke-linecap="round" stroke-linejoin="round" stroke-width="2" version="1.1" viewBox="0 0 24 24" xml:space="preserve" xmlns="http://www.w3.org/2000/svg"><circle cx="23.239" cy="12.269" r="0"/><g fill="#4684e1"><path d="m17.914 6.5977c-0.56515 5.65e-5 -1.0234 0.45829-1.0234 1.0234v4.041c1.12e-4 0.56513 0.45831 1.0214 1.0234 1.0215h3.0703v1.3066h2e-3v1.7383c5.6e-5 0.56515 0.45829 1.0234 1.0234 1.0234 0.56515-5.6e-5 1.0234-0.45829 1.0234-1.0234v-1.7656h-2e-3v-6.3418c-5.6e-5 -0.56515-0.45829-1.0234-1.0234-1.0234-0.56515 5.59e-5 -1.0234 0.45829-1.0234 1.0234v3.0449h-2.0469v-3.0449c-5.6e-5 -0.56515-0.45829-1.0234-1.0234-1.0234z"/><path d="m17.07 13.389h-2.0469v1.3164h-2.0469v-1.3164h-2.0469v2.3398c1.12e-4 0.56513 0.45831 1.0233 1.0234 1.0234h4.0938c0.56515-5.6e-5 1.0234-0.45829 1.0234-1.0234z"/><path d="m9.9531 6.5977c-0.56513 1.121e-4 -1.0233 0.45831-1.0234 1.0234v5.7676h2.0469v-4.7441h2.0469v4.7441h2.0469v-5.7676c-5.6e-5 -0.56515-0.45829-1.0234-1.0234-1.0234z"/><path d="m1.9922 6.5977c-0.56515 5.61e-5 -1.0234 0.45829-1.0234 1.0234v1.2813h-0.001953v2.3281h0.001953v0.43164c1.1202e-4 0.56513 0.45831 1.0214 1.0234 1.0215h3.0703v3.0449c5.59e-5 0.56515 0.45829 1.0234 1.0234 1.0234 0.56515-5.6e-5 1.0234-0.45829 1.0234-1.0234v-8.1074c-5.61e-5 -0.56515-0.45829-1.0234-1.0234-1.0234-0.56515 5.61e-5 -1.0234 0.45829-1.0234 1.0234v3.0449h-2.0469v-3.0449c-5.61e-5 -0.56515-0.45829-1.0234-1.0234-1.0234z"/></g></svg>
